<?xml version="1.0" standalone="no"?>
<!DOCTYPE svg PUBLIC "-//W3C//DTD SVG 20010904//EN"
 "http://www.w3.org/TR/2001/REC-SVG-20010904/DTD/svg10.dtd">
<svg version="1.0" xmlns="http://www.w3.org/2000/svg"
 width="96.000000pt" height="96.000000pt" viewBox="0 0 96.000000 96.000000"
 preserveAspectRatio="xMidYMid meet">
<metadata>
Created by potrace 1.11, written by Peter Selinger 2001-2013
</metadata>
<g transform="translate(0.000000,96.000000) scale(0.100000,-0.100000)"
fill="#000000" stroke="none">
<path d="M170 600 l0 -230 305 0 305 0 0 230 0 230 -305 0 -305 0 0 -230z
m560 0 l0 -180 -252 2 -253 3 -3 178 -2 177 255 0 255 0 0 -180z"/>
<path d="M120 220 l-50 -100 405 0 c223 0 405 2 405 5 0 3 -21 48 -47 100
l-48 95 -307 0 -308 0 -50 -100z"/>
</g>
</svg>
